# Blender 4.0.2
# www.blender.org
mtllib axis.mtl
o Cube
v -0.100000 -0.100000 0.100000 1.0000 1.0000 1.0000
v -0.100000 0.100000 0.100000 1.0000 1.0000 1.0000
v -0.100000 -0.100000 -0.100000 1.0000 1.0000 1.0000
v -0.100000 0.100000 -0.100000 1.0000 1.0000 1.0000
v 0.100000 -0.100000 0.100000 1.0000 1.0000 1.0000
v 0.100000 0.100000 0.100000 1.0000 1.0000 1.0000
v 0.100000 -0.100000 -0.100000 1.0000 1.0000 1.0000
v 0.100000 0.100000 -0.100000 1.0000 1.0000 1.0000
v 0.197036 0.100000 -0.100000 1.0000 0.1490 0.1490
v 0.197036 -0.100000 -0.100000 1.0000 0.0824 0.0824
v 0.197036 -0.100000 0.100000 1.0000 0.0588 0.0588
v 0.197036 0.100000 0.100000 1.0000 0.3294 0.3294
v -0.100000 0.100000 -0.200000 0.1255 1.0000 0.1255
v -0.100000 -0.100000 -0.200000 0.1412 1.0000 0.1412
v 0.100000 -0.100000 -0.200000 0.0235 1.0000 0.0235
v 0.100000 0.100000 -0.200000 0.1098 1.0000 0.1098
v -0.100000 0.188987 0.100000 0.0863 0.0863 1.0000
v -0.100000 0.188987 -0.100000 0.1020 0.1020 1.0000
v 0.100000 0.188987 -0.100000 0.0039 0.0039 1.0000
v 0.100000 0.188987 0.100000 0.0157 0.0157 1.0000
v -0.100000 1.000000 0.100000 0.0863 0.0863 1.0000
v -0.100000 1.000000 -0.100000 0.1020 0.1020 1.0000
v 0.100000 1.000000 -0.100000 0.0039 0.0039 1.0000
v 0.100000 1.000000 0.100000 0.0157 0.0157 1.0000
v 1.000000 0.100000 -0.100000 1.0000 0.1490 0.1490
v 1.000000 -0.100000 -0.100000 1.0000 0.0824 0.0824
v 1.000000 -0.100000 0.100000 1.0000 0.0588 0.0588
v 1.000000 0.100000 0.100000 1.0000 0.3294 0.3294
v -0.100000 0.100000 -1.000000 0.1255 1.0000 0.1255
v -0.100000 -0.100000 -1.000000 0.1412 1.0000 0.1412
v 0.100000 -0.100000 -1.000000 0.0235 1.0000 0.0235
v 0.100000 0.100000 -1.000000 0.1098 1.0000 0.1098
vn -1.0000 -0.0000 -0.0000
vn -0.0000 1.0000 -0.0000
vn -0.0000 -0.0000 1.0000
vn -0.0000 -1.0000 -0.0000
vn -0.0000 -0.0000 -1.0000
vn 1.0000 -0.0000 -0.0000
vt 0.625000 0.000000
vt 0.375000 0.250000
vt 0.375000 0.000000
vt 0.625000 0.500000
vt 0.875000 0.500000
vt 0.375000 0.750000
vt 0.625000 0.750000
vt 0.375000 1.000000
vt 0.375000 0.500000
vt 0.125000 0.750000
vt 0.125000 0.500000
vt 0.625000 1.000000
vt 0.625000 0.250000
vt 0.875000 0.750000
s 0
usemtl Material.001
f 2/1/1 3/2/1 1/3/1
f 8/4/2 13/5/2 4/5/2
f 5/6/3 12/7/3 6/7/3
f 6/7/3 1/8/3 5/6/3
f 7/9/4 1/10/4 3/11/4
f 6/7/3 17/12/3 2/12/3
f 10/9/4 27/6/4 11/6/4
f 7/9/4 11/6/4 5/6/4
f 6/7/2 9/4/2 8/4/2
f 8/4/5 10/9/5 7/9/5
f 16/4/2 29/5/2 13/5/2
f 4/13/1 14/2/1 3/2/1
f 7/9/6 16/4/6 8/4/6
f 3/11/4 15/9/4 7/9/4
f 20/7/3 21/12/3 17/12/3
f 4/5/5 19/4/5 8/4/5
f 8/4/6 20/7/6 6/7/6
f 2/1/1 18/13/1 4/13/1
f 22/5/2 24/7/2 23/4/2
f 18/5/5 23/4/5 19/4/5
f 19/4/6 24/7/6 20/7/6
f 17/1/1 22/13/1 18/13/1
f 25/4/6 27/6/6 26/9/6
f 12/7/2 25/4/2 9/4/2
f 9/4/5 26/9/5 10/9/5
f 11/6/3 28/7/3 12/7/3
f 29/13/5 31/9/5 30/2/5
f 13/13/1 30/2/1 14/2/1
f 15/9/6 32/4/6 16/4/6
f 14/11/4 31/9/4 15/9/4
f 2/1/1 4/13/1 3/2/1
f 8/4/2 16/4/2 13/5/2
f 5/6/3 11/6/3 12/7/3
f 6/7/3 2/12/3 1/8/3
f 7/9/4 5/6/4 1/10/4
f 6/7/3 20/7/3 17/12/3
f 10/9/4 26/9/4 27/6/4
f 7/9/4 10/9/4 11/6/4
f 6/7/2 12/7/2 9/4/2
f 8/4/5 9/4/5 10/9/5
f 16/4/2 32/4/2 29/5/2
f 4/13/1 13/13/1 14/2/1
f 7/9/6 15/9/6 16/4/6
f 3/11/4 14/11/4 15/9/4
f 20/7/3 24/7/3 21/12/3
f 4/5/5 18/5/5 19/4/5
f 8/4/6 19/4/6 20/7/6
f 2/1/1 17/1/1 18/13/1
f 22/5/2 21/14/2 24/7/2
f 18/5/5 22/5/5 23/4/5
f 19/4/6 23/4/6 24/7/6
f 17/1/1 21/1/1 22/13/1
f 25/4/6 28/7/6 27/6/6
f 12/7/2 28/7/2 25/4/2
f 9/4/5 25/4/5 26/9/5
f 11/6/3 27/6/3 28/7/3
f 29/13/5 32/4/5 31/9/5
f 13/13/1 29/13/1 30/2/1
f 15/9/6 31/9/6 32/4/6
f 14/11/4 30/11/4 31/9/4
